# xmcd
#
# Track frame offsets:
#	150
#	9449
#	24552
#	40258
#	51568
#	71669
#	92295
#	100545
#	110520
#	127831
#	141671
#	163871
#	176860
#
# Disc length: 2645 seconds
#
# Revision: 1
# Processed by: cddbd v1.5.1PL0 Copyright (c) Steve Scherf et al.
# Submitted via: audiograbber 1.81.03
#
DISCID=af0a530d
DTITLE=Forty Twenty - Sober and Stupid
DYEAR=2005
DGENRE=Old School Country
TTITLE0=Paulette
TTITLE1=Life That Chose Me
TTITLE2=Walk Out
TTITLE3=Milk and Pancakes (The Ballad of Doris)
TTITLE4=Can't It Be Me
TTITLE5=Peace, Love and Honky-Tonk
TTITLE6=Skunk Yodel No. 7
TTITLE7=Ceiling Fan Polka
TTITLE8=Sober and Stupid
TTITLE9=Doggone Happy To Be Blue
TTITLE10=Sorry
TTITLE11=Pancakes and Beer
TTITLE12=Turn to the Whiskey
EXTD=
EXTT0=
EXTT1=
EXTT2=
EXTT3=
EXTT4=
EXTT5=
EXTT6=
EXTT7=
EXTT8=
EXTT9=
EXTT10=
EXTT11=
EXTT12=
PLAYORDER=
